<?xml version="1.0" standalone="no"?>
<!DOCTYPE svg PUBLIC "-//W3C//DTD SVG 20010904//EN"
 "http://www.w3.org/TR/2001/REC-SVG-20010904/DTD/svg10.dtd">
<svg version="1.0" xmlns="http://www.w3.org/2000/svg"
 width="1008.000000pt" height="1008.000000pt" viewBox="0 0 1008.000000 1008.000000"
 preserveAspectRatio="xMidYMid meet">
<metadata>
Created by potrace 1.14, written by Peter Selinger 2001-2017
</metadata>
<g transform="translate(0.000000,1008.000000) scale(0.100000,-0.100000)"
fill="#000000" stroke="none">
<path d="M950 9616 c-16 -37 -30 -68 -30 -70 0 -2 -8 -21 -17 -42 -9 -22 -18
-45 -19 -52 -1 -8 -6 -21 -10 -30 -4 -9 -8 -19 -9 -22 -1 -3 -7 -18 -14 -35
-11 -26 -16 -42 -24 -80 -2 -5 -5 -14 -8 -20 -5 -9 -15 -41 -25 -80 -1 -5 -13
-55 -27 -110 -14 -55 -28 -113 -31 -130 -3 -16 -8 -41 -11 -55 -3 -14 -8 -43
-11 -65 -3 -22 -7 -47 -9 -55 -2 -17 -14 -98 -20 -145 -25 -175 -25 -574 0
-790 2 -22 7 -65 10 -95 3 -30 8 -64 11 -75 2 -11 6 -36 9 -55 2 -19 7 -46 10
-60 3 -14 8 -38 10 -55 8 -55 13 -80 25 -125 7 -25 14 -53 16 -63 1 -10 12
-52 24 -94 l21 -76 -26 -36 c-14 -20 -46 -63 -70 -96 -25 -33 -48 -66 -51 -73
-3 -7 -30 -49 -60 -95 -30 -45 -54 -88 -54 -94 0 -7 -3 -13 -7 -13 -5 0 -13
-10 -19 -23 -6 -12 -27 -51 -46 -87 -52 -97 -82 -154 -83 -160 0 -3 -17 -40
-38 -82 -20 -43 -37 -82 -37 -87 0 -5 -13 -39 -30 -75 -16 -36 -27 -66 -23
-66 3 0 1 -6 -5 -12 -11 -15 -89 -253 -107 -328 0 -3 -4 -14 -8 -25 -3 -11 -8
-31 -11 -45 -3 -14 -16 -72 -30 -130 -22 -97 -35 -164 -42 -215 -1 -11 -3 -20
-4 -20 -3 0 -11 -42 -15 -85 -2 -25 -5 -45 -6 -45 0 0 -2 -16 -4 -35 -2 -19
-4 -35 -5 -35 -1 0 -4 -16 -5 -35 -2 -19 -5 -57 -8 -85 -17 -155 -22 -284 -21
-590 0 -187 4 -385 8 -440 4 -55 8 -128 9 -162 1 -35 4 -63 7 -63 3 0 6 -24 7
-53 1 -28 4 -72 7 -97 3 -25 8 -63 11 -85 4 -42 14 -115 20 -150 2 -11 6 -38
9 -60 4 -22 9 -51 12 -65 2 -14 7 -38 9 -55 3 -16 8 -42 11 -57 3 -15 5 -30 5
-33 0 -2 5 -19 10 -37 5 -18 12 -46 14 -61 7 -38 31 -134 44 -175 5 -18 10
-34 11 -37 0 -3 2 -10 4 -17 81 -258 106 -325 207 -546 16 -34 28 -65 28 -67
1 -3 12 -27 27 -53 15 -26 38 -67 52 -92 67 -119 199 -305 262 -370 14 -14 51
-53 82 -87 32 -34 58 -60 58 -58 0 1 17 -14 38 -34 21 -20 55 -49 76 -66 21
-16 43 -35 50 -40 47 -43 281 -196 419 -274 110 -62 388 -201 401 -201 9 0 16
-4 16 -10 0 -5 7 -10 15 -10 8 0 42 -13 77 -29 35 -15 90 -38 123 -50 33 -13
69 -27 80 -32 31 -13 354 -118 380 -123 13 -2 32 -9 42 -14 10 -6 21 -10 26
-11 30 -4 76 -15 115 -27 7 -2 16 -4 20 -5 4 -1 32 -8 62 -15 139 -34 260 -58
405 -79 148 -21 172 -24 245 -30 36 -3 84 -7 108 -10 126 -15 220 -24 332 -31
41 -3 104 -7 140 -9 36 -3 99 -7 140 -9 41 -2 131 -8 200 -12 167 -11 1004
-10 1260 0 250 11 315 14 315 16 0 1 25 3 55 5 61 3 196 14 250 20 19 2 62 6
95 9 33 3 78 8 100 10 22 3 60 8 85 10 84 9 205 24 240 31 13 2 46 7 74 10 28
3 69 10 91 15 22 5 56 11 75 14 84 14 231 43 283 57 21 6 50 12 65 14 15 2 46
10 70 19 23 8 44 15 47 15 20 1 87 20 130 37 11 4 25 9 30 9 25 4 71 19 94 31
14 8 31 14 36 14 26 0 352 130 494 196 51 24 97 44 102 44 5 0 9 4 9 9 0 5 12
14 28 20 25 9 94 47 117 63 5 4 53 36 105 70 52 34 100 67 106 73 7 5 24 19
40 30 28 20 80 62 100 80 6 5 33 28 60 50 55 45 247 235 313 310 53 59 221
283 229 305 3 8 11 19 19 23 7 4 13 12 13 17 0 4 21 44 46 87 72 120 123 221
117 227 -4 3 -1 6 6 6 6 0 11 6 10 13 -1 6 7 32 18 57 23 51 35 80 39 95 1 6
13 42 27 80 14 39 31 90 38 115 7 25 14 50 15 55 24 83 55 209 59 239 3 21 8
43 11 47 6 11 13 41 20 94 2 22 9 56 13 75 5 19 12 58 16 85 3 28 9 64 12 80
3 17 7 46 8 65 2 19 4 35 5 35 3 0 6 28 14 115 3 36 5 65 6 65 1 0 3 25 6 55
2 30 6 78 9 105 27 288 27 933 1 1195 -4 30 -8 75 -11 100 -8 86 -16 145 -22
170 -3 14 -7 36 -8 50 -5 41 -36 213 -40 220 -2 4 -7 22 -10 41 -3 19 -8 42
-11 51 -5 17 -12 47 -20 88 -3 14 -8 34 -11 45 -4 11 -8 25 -9 32 -3 16 -23
83 -33 108 -4 11 -21 61 -36 110 -15 50 -34 104 -41 120 -7 17 -31 73 -52 125
-50 122 -124 274 -134 278 -4 2 -8 11 -8 19 0 8 -12 34 -28 57 -15 22 -34 55
-42 71 -21 44 -171 269 -181 273 -5 2 -9 8 -9 14 0 5 -21 35 -46 65 -33 41
-44 62 -39 77 3 12 7 28 9 36 2 8 16 61 30 117 14 56 28 114 30 130 2 15 6 35
8 43 14 42 24 99 17 94 -5 -3 -5 5 0 18 5 13 12 46 15 73 4 28 9 64 12 80 24
148 36 540 21 745 -11 161 -37 347 -63 465 -4 17 -8 39 -10 50 -1 11 -3 20 -4
20 -1 0 -3 9 -5 20 -2 11 -14 56 -25 100 -11 44 -23 88 -25 97 -2 9 -9 26 -15
37 -6 12 -8 21 -6 21 6 0 -62 198 -103 300 l-30 75 -108 -1 c-153 -1 -277 -8
-283 -15 -3 -3 -35 -9 -73 -12 -37 -3 -71 -8 -75 -11 -5 -3 -31 -8 -58 -12
-27 -3 -52 -8 -55 -10 -3 -2 -20 -6 -37 -9 -18 -3 -53 -12 -78 -21 -26 -9 -54
-17 -63 -19 -14 -3 -82 -27 -211 -77 -19 -7 -37 -15 -40 -18 -3 -3 -54 -30
-115 -60 -60 -30 -112 -58 -115 -61 -3 -3 -21 -14 -40 -24 -19 -9 -43 -24 -52
-33 -10 -8 -18 -12 -18 -8 0 4 -6 2 -12 -4 -17 -15 -119 -80 -124 -80 -3 0
-14 -8 -25 -18 -10 -11 -32 -25 -47 -33 -15 -8 -29 -16 -32 -19 -3 -3 -45 -35
-95 -70 -49 -35 -122 -89 -161 -120 -39 -30 -86 -66 -104 -80 -18 -14 -42 -33
-54 -44 -11 -10 -36 -30 -55 -45 -34 -25 -108 -90 -140 -121 -14 -14 -26 -13
-111 7 -52 13 -140 33 -195 44 -55 11 -107 22 -115 24 -8 1 -35 6 -60 10 -25
4 -56 10 -70 12 -14 3 -36 7 -50 8 -14 2 -25 4 -25 5 0 1 -11 3 -25 5 -14 1
-45 5 -70 8 -25 4 -65 9 -90 12 -25 3 -61 8 -80 11 -19 3 -56 7 -81 9 -26 2
-69 6 -95 9 -77 9 -152 15 -295 21 -74 4 -151 8 -172 9 -21 1 -40 -1 -43 -6
-3 -5 -11 -5 -17 -1 -17 11 -300 11 -314 0 -9 -6 -13 -5 -13 2 0 7 -4 10 -8 7
-5 -3 -74 -8 -153 -11 -79 -3 -166 -7 -194 -10 -27 -2 -84 -7 -125 -10 -41 -3
-88 -8 -105 -9 -16 -2 -57 -7 -90 -10 -33 -4 -76 -9 -96 -12 -20 -2 -54 -7
-75 -9 -37 -4 -63 -8 -136 -20 -18 -3 -49 -8 -68 -10 -19 -2 -45 -6 -56 -9
-12 -2 -39 -7 -60 -10 -22 -4 -46 -8 -54 -11 -8 -2 -27 -7 -42 -10 -42 -8 -75
-14 -105 -21 -16 -3 -40 -7 -54 -9 -14 -2 -38 -9 -52 -14 -15 -6 -27 -9 -27
-6 0 2 -38 -7 -85 -20 -46 -12 -85 -20 -87 -16 -4 10 -249 201 -423 331 -77
57 -141 108 -143 112 -2 4 -8 8 -13 8 -11 0 -72 42 -77 53 -2 4 -10 7 -17 7
-7 0 -15 4 -17 8 -2 7 -77 59 -140 97 -9 5 -48 29 -87 53 -38 23 -74 42 -80
42 -6 0 -11 3 -11 8 0 4 -10 12 -23 18 -12 6 -74 38 -137 71 -110 57 -261 122
-285 123 -3 0 -19 7 -35 15 -17 9 -30 14 -30 11 0 -2 -21 3 -47 11 -27 8 -57
16 -68 18 -11 3 -40 9 -65 15 -25 5 -56 12 -70 14 -14 3 -34 7 -45 9 -11 3
-49 8 -85 12 -36 4 -74 9 -84 11 -11 2 -81 6 -157 10 l-138 6 -31 -66z m2175
-4180 c55 -3 116 -8 135 -11 51 -6 150 -17 190 -20 19 -2 51 -5 70 -8 19 -3
58 -9 85 -12 28 -4 66 -9 85 -12 19 -3 49 -7 65 -8 17 -2 41 -6 55 -9 14 -2
47 -7 74 -11 27 -3 52 -8 55 -9 3 -2 33 -7 66 -11 32 -3 62 -8 66 -10 3 -3 30
-7 60 -11 63 -7 94 -12 94 -14 0 -1 16 -3 35 -5 19 -3 51 -6 70 -9 19 -2 71
-7 115 -11 44 -4 94 -9 110 -11 223 -21 764 -21 975 1 19 2 70 6 112 10 43 3
88 8 100 11 13 3 41 6 63 8 42 4 103 13 145 21 14 3 45 8 70 10 25 3 52 8 60
10 8 2 35 7 60 10 25 3 52 8 60 10 8 2 40 7 70 11 30 3 64 8 75 9 11 2 43 6
70 10 28 4 61 9 75 11 14 2 48 6 75 9 28 3 64 7 80 9 265 35 550 48 715 32 62
-6 205 -32 248 -45 1 -1 3 -1 5 0 9 2 165 -60 222 -89 76 -39 158 -91 163
-104 2 -4 9 -8 16 -8 21 0 198 -180 262 -265 62 -84 129 -183 153 -225 59
-108 157 -321 165 -361 2 -8 6 -21 9 -29 11 -28 48 -161 52 -188 6 -35 13 -67
15 -67 1 0 4 -13 5 -30 2 -16 7 -43 10 -60 4 -16 7 -45 8 -62 0 -18 3 -33 6
-33 21 0 18 -500 -4 -694 -14 -123 -68 -371 -94 -431 -5 -11 -21 -54 -36 -95
-66 -180 -186 -397 -309 -555 -17 -22 -38 -49 -46 -59 -24 -32 -185 -189 -221
-216 -18 -14 -62 -44 -98 -67 -37 -24 -71 -47 -78 -53 -7 -5 -16 -10 -20 -10
-4 0 -34 -16 -65 -35 -32 -19 -58 -32 -58 -30 0 3 -18 -6 -40 -20 -22 -14 -40
-23 -40 -20 0 3 -17 -3 -37 -14 -35 -17 -225 -91 -248 -95 -5 -2 -48 -15 -95
-30 -47 -15 -93 -30 -102 -32 -20 -4 -35 -8 -88 -23 -32 -9 -139 -36 -182 -47
-22 -5 -41 -9 -93 -19 -22 -5 -44 -9 -50 -11 -5 -1 -41 -7 -80 -14 -38 -6 -81
-13 -95 -15 -14 -3 -52 -7 -85 -10 -33 -3 -73 -8 -90 -10 -74 -9 -217 -19
-287 -19 -43 -1 -78 -3 -78 -6 0 -3 -42 -6 -93 -6 -50 -1 -137 -3 -192 -4 -55
0 -104 0 -110 1 -5 1 -14 0 -20 -1 -12 -2 -206 -2 -220 1 -5 1 -14 1 -19 0
-12 -3 -368 -3 -381 0 -5 1 -14 0 -20 -1 -12 -2 -206 -2 -220 1 -5 1 -14 0
-20 -1 -31 -6 -539 4 -685 15 -47 3 -114 8 -150 10 -36 2 -84 7 -107 10 -23 3
-70 7 -103 10 -34 2 -65 7 -70 10 -5 3 -30 7 -57 9 -26 2 -55 6 -63 10 -8 3
-31 7 -50 10 -19 2 -35 5 -35 6 0 1 -11 3 -25 5 -32 6 -65 13 -65 15 0 1 -18
4 -39 6 -21 3 -46 9 -55 13 -9 5 -34 12 -56 16 -22 5 -46 10 -52 12 -7 1 -21
5 -30 7 -10 3 -19 5 -20 6 -2 2 -7 4 -13 5 -5 1 -11 3 -12 4 -2 2 -13 4 -25 7
-43 8 -318 101 -406 138 -111 46 -251 116 -255 127 -2 5 -8 9 -13 9 -13 0
-143 81 -147 91 -2 5 -8 9 -13 9 -33 0 -228 189 -326 315 -78 100 -229 367
-280 495 -51 130 -99 283 -108 345 -1 11 -5 27 -8 35 -6 17 -15 73 -32 195
-25 183 -25 618 1 730 2 11 6 36 8 55 9 77 40 210 48 210 5 0 6 5 3 11 -12 18
85 292 137 387 10 18 18 39 18 47 0 8 4 15 8 15 5 0 16 17 26 38 67 141 266
384 412 502 40 32 180 120 191 120 7 0 13 5 13 10 0 6 6 10 14 10 8 0 43 13
78 28 104 47 262 85 399 98 41 3 75 7 76 8 4 3 218 -2 308 -8z"/>
<path d="M3048 4815 c-2 -1 -22 -5 -46 -9 -44 -6 -174 -62 -180 -78 -2 -4 -8
-8 -13 -8 -12 0 -21 -8 -101 -80 -50 -46 -93 -104 -175 -235 -13 -21 -67 -126
-69 -135 0 -3 -6 -18 -13 -35 -13 -30 -62 -168 -61 -172 0 -2 0 -4 -1 -5 -3
-10 -8 -39 -14 -72 -4 -21 -9 -48 -11 -60 -31 -142 -36 -504 -9 -686 13 -88
17 -119 21 -140 3 -14 8 -38 11 -55 14 -81 131 -331 179 -386 8 -8 14 -19 14
-23 0 -5 10 -20 23 -35 12 -15 31 -40 42 -56 68 -97 195 -191 310 -230 65 -22
193 -26 267 -9 60 14 151 56 176 80 7 8 17 14 20 14 26 0 232 238 232 268 0 5
3 12 8 14 20 9 112 198 147 303 39 116 56 204 70 370 18 209 -5 499 -56 700
-17 68 -74 213 -100 255 -5 8 -13 25 -19 38 -14 32 -131 206 -141 210 -5 2 -9
9 -9 16 0 6 -34 44 -75 83 -71 68 -180 135 -245 149 -29 6 -177 14 -182 9z"/>
<path d="M6871 4804 c-61 -14 -201 -80 -201 -95 0 -5 -5 -9 -11 -9 -6 0 -35
-24 -66 -52 -30 -29 -59 -54 -64 -56 -5 -2 -9 -9 -9 -16 0 -7 -8 -21 -17 -32
-75 -82 -214 -374 -237 -494 -2 -14 -7 -32 -10 -40 -4 -14 -14 -68 -21 -130
-25 -197 -25 -467 0 -655 20 -143 31 -195 63 -280 44 -121 148 -305 229 -406
63 -79 207 -199 240 -199 4 0 21 -7 36 -15 16 -8 38 -16 50 -17 12 -2 27 -7
34 -11 6 -4 15 -3 18 3 5 8 11 8 19 1 15 -13 150 -7 189 8 15 6 27 9 27 7 0
-11 121 57 165 92 75 60 96 81 146 147 160 208 252 421 290 676 18 120 15 569
-3 569 -5 0 -7 3 -6 8 1 4 -2 27 -6 52 -5 25 -8 49 -7 54 1 4 -2 13 -7 20 -4
6 -8 18 -7 26 1 8 -4 29 -11 47 -7 17 -10 34 -6 37 3 3 1 6 -4 6 -5 0 -10 10
-11 23 -4 36 -9 56 -16 63 -4 4 -7 18 -7 31 0 13 -4 23 -9 23 -5 0 -12 15 -16
33 -4 17 -8 34 -9 37 -7 26 -97 188 -138 246 -45 66 -142 173 -193 214 -46 36
-146 81 -187 83 -10 1 -18 4 -18 7 0 10 -156 6 -209 -6z"/>
</g>
</svg>
