<?xml version="1.0" encoding="utf-8"?>
<!-- Generator: Adobe Illustrator 22.0.1, SVG Export Plug-In . SVG Version: 6.00 Build 0)  -->
<svg version="1.1" id="Слой_1" xmlns="http://www.w3.org/2000/svg" xmlns:xlink="http://www.w3.org/1999/xlink" x="0px" y="0px"
	 viewBox="0 0 3000 1600" style="enable-background:new 0 0 3000 1600;" xml:space="preserve">
<style type="text/css">
	.st0{fill-rule:evenodd;clip-rule:evenodd;fill:#1886A7;}
	.st1{fill-rule:evenodd;clip-rule:evenodd;fill:#CE4E76;}
	.st2{fill:#666666;}
	.st3{fill:#CE4E76;}
</style>
<g>
	<g>
		<path class="st0" d="M837.9,644.4c49.7,0,95,19.5,128.5,51.1l58-49.9c-39.6-39.8-94.5-64.4-155.2-64.4
			c-121.1,0-219.1,98.2-219.1,219.3c0,6.4,0.2,12.7,0.7,18.9C657.2,721.8,738.4,644.4,837.9,644.4L837.9,644.4z"/>
		<path class="st1" d="M812.9,1012.4c-63.7-36.5-70.8-133.8-4.1-176.4c40.2-26,75.6-32,105.8-18.6c-11.9-16.6-30.4-26.4-55.9-29.4
			c-13.8-1.6-29.9-1.2-47.8,1.4c-40.9,6-66.5-4.6-77-31.9c-11.9-31,5.5-69,31.5-88.1c-58.6,26.2-100.5,83-104.9,150.8
			C654.5,912.7,726.4,989.3,812.9,1012.4L812.9,1012.4z"/>
		<path class="st0" d="M1024.8,954.8l-26.5-26.4l-23.9-23.7c-68,80.9-187.6,83.9-201.2-0.2c-6.5,34.7,7.1,76.1,36.6,96.8
			C867.3,1041.6,973.6,1006.3,1024.8,954.8L1024.8,954.8z"/>
		<path class="st1" d="M790.3,769.2c20.2,0,36.8-16.5,36.8-36.8c0-20.2-16.6-36.6-36.8-36.6c-20.2,0-36.6,16.5-36.6,36.6
			C753.6,752.7,770.1,769.2,790.3,769.2L790.3,769.2z"/>
	</g>
	<g>
		<path class="st2" d="M1142.6,781.4c-2.9,0-6-0.1-9.4-0.4c-3.4-0.3-6.8-0.9-10.2-1.9c-3.4-1-6.8-2.4-10.1-4.3
			c-3.3-1.9-6.3-4.4-9.1-7.6c-2.9-3.2-5.2-6.8-6.8-10.6c-1.6-3.8-2.8-7.7-3.6-11.6c-0.8-3.9-1.3-7.8-1.6-11.7
			c-0.2-3.9-0.3-7.5-0.3-10.9c0-4.3,0.1-8.6,0.4-12.9c0.3-4.3,0.8-8.6,1.7-12.7c0.8-4.1,2-8,3.6-11.6c1.6-3.6,3.6-7,6.2-10
			c3-3.6,6.4-6.4,10.1-8.4c3.7-2,7.4-3.6,11.1-4.6c3.7-1,7.2-1.7,10.4-1.9c3.2-0.2,6-0.3,8.2-0.3h48.8V678h-38.1
			c-3.4,0-6.6,0.1-9.7,0.3c-3.1,0.2-6.1,0.7-8.8,1.5c-2.7,0.8-5.2,2-7.5,3.5c-2.3,1.5-4.3,3.5-6,6.1c-1.9,2.7-3.4,6.5-4.8,11.6
			c-1.3,5-2,12.1-2,21.1c0,4.5,0.2,8.4,0.5,11.7c0.3,3.3,0.8,6.1,1.4,8.4c0.6,2.3,1.2,4.2,1.9,5.7c0.7,1.5,1.3,2.7,1.9,3.6
			c3.1,4.8,7.4,7.9,12.9,9.4c5.4,1.5,11.8,2.3,18.9,2.3h41.2v18.2H1142.6z"/>
		<path class="st2" d="M1239.6,678c-0.9,0-1.9,0-2.9,0.1c-1,0.1-1.9,0.6-2.7,1.5c-0.6,0.6-1,1.4-1.2,2.5c-0.2,1.1-0.3,2.2-0.3,3.2
			v96.1h-22.9V676.3c0-2.2,0.3-4.3,0.8-6.3c0.5-2,1.8-3.9,3.7-5.9c2.2-2.1,4.3-3.3,6.4-3.7c2.1-0.4,4.5-0.6,7.3-0.6h71.9
			c2.4,0,4.8,0.2,7.1,0.6c2.3,0.4,4.5,1.7,6.6,3.7c1.9,1.9,3,3.8,3.6,5.9c0.5,2.1,0.8,4.2,0.8,6.3v105.1h-22.9v-96.1
			c0-0.9,0-1.9-0.1-3c-0.1-1-0.5-2-1.3-2.8c-0.8-0.9-1.7-1.4-2.8-1.5c-1-0.1-2-0.1-2.8-0.1H1239.6z"/>
		<path class="st2" d="M1409.4,658.5c4.2,0.1,8.5,0.6,12.9,1.4c4.3,0.8,8.6,2.1,12.7,3.8c4.1,1.7,7.8,4.2,11.2,7.5
			c3.1,3,5.6,6.5,7.5,10.6c1.9,4.1,3.3,8.3,4.3,12.7c1,4.4,1.6,8.9,1.8,13.4c0.2,4.5,0.3,8.7,0.3,12.7c0,4.1-0.1,8.3-0.4,12.8
			c-0.3,4.5-0.9,8.9-1.8,13.3c-0.9,4.4-2.3,8.6-4.2,12.7c-1.9,4.1-4.3,7.6-7.5,10.6c-3.4,3.2-7.1,5.7-11.2,7.5
			c-4.1,1.7-8.3,3-12.7,3.8c-4.3,0.8-8.7,1.3-12.9,1.4c-4.3,0.1-8.2,0.2-11.6,0.2c-3.6,0-7.5-0.1-11.7-0.2
			c-4.2-0.1-8.5-0.6-12.9-1.4s-8.6-2.1-12.7-3.8c-4.1-1.7-7.9-4.2-11.2-7.5c-3.5-3.4-6.2-7.2-8.1-11.5c-1.9-4.3-3.3-8.7-4.2-13.1
			c-0.9-4.5-1.4-8.8-1.6-13.1c-0.2-4.3-0.3-8.2-0.3-11.6c0-4.2,0.1-8.5,0.3-12.9c0.2-4.5,0.8-8.9,1.7-13.2c0.9-4.3,2.3-8.5,4.2-12.5
			c1.9-4,4.5-7.6,7.8-10.7c3.4-3.2,7.1-5.7,11.2-7.5c4.1-1.7,8.3-3,12.6-3.8c4.3-0.8,8.5-1.3,12.8-1.4c4.2-0.1,8.2-0.2,11.9-0.2
			C1401.3,658.4,1405.2,658.4,1409.4,658.5z M1359.4,733.5c0.4,3.6,1,6.8,1.7,9.6c0.7,2.7,1.5,5,2.3,6.8c0.9,1.8,1.8,3.3,2.9,4.6
			c1.7,2.3,3.8,4.1,6.1,5.5c2.3,1.3,4.8,2.3,7.5,3c2.7,0.7,5.5,1.1,8.5,1.3c3,0.2,6.1,0.3,9.2,0.3c3.1,0,6.2-0.1,9.1-0.3
			c3-0.2,5.8-0.6,8.5-1.3c2.7-0.7,5.2-1.7,7.6-3c2.3-1.3,4.4-3.2,6.3-5.5c1-1.3,2-2.8,2.9-4.7c0.9-1.9,1.7-4.1,2.3-6.8
			c0.7-2.7,1.2-5.8,1.7-9.6c0.4-3.7,0.6-8,0.6-12.9c0-5.2-0.2-9.7-0.6-13.5c-0.4-3.8-1-7-1.7-9.6c-0.7-2.7-1.5-4.9-2.4-6.6
			c-0.9-1.7-1.9-3.2-2.8-4.3c-3.6-4.4-8.2-7.2-13.7-8.3c-5.6-1.1-11.5-1.7-17.7-1.7c-6.4,0-12.3,0.6-17.7,1.7
			c-5.4,1.1-10,3.9-13.6,8.3c-2.3,3-4.1,7.1-5.5,12.3c-1.3,5.2-2,12.4-2,21.8C1358.8,725.6,1359,729.9,1359.4,733.5z"/>
		<path class="st2" d="M1477.5,781.4V678c0-2.3,0.2-4.6,0.5-7c0.3-2.3,1.6-4.5,3.6-6.6c2-2,4.2-3.2,6.8-3.8c2.5-0.6,4.9-0.9,7-0.9
			h57.9c1.6,0,3.4,0,5.5,0.1c2,0.1,4.1,0.3,6.3,0.8c2.1,0.5,4.3,1.2,6.4,2.2c2.1,1,4.1,2.4,6,4.3c2.1,2,3.7,4.3,5,6.9
			c1.2,2.6,2.1,5.4,2.8,8.3c0.6,2.9,1,5.8,1.2,8.7c0.2,2.9,0.3,5.6,0.3,8.2c0,2.4-0.1,5.2-0.3,8.3c-0.2,3.1-0.7,6.1-1.4,9.2
			c-0.7,3.1-1.7,6-3.1,8.8c-1.4,2.8-3.3,5.2-5.7,7.1c-2.3,1.9-5.1,3.3-8.3,4.3c-3.2,1-6.7,1.6-10.3,1.6h-57v43.1H1477.5z M1544,720
			c2.5,0,5.2-0.2,7.9-0.5c2.7-0.3,5.1-1.7,7-4c0.9-1,1.7-2.3,2.2-3.7c0.5-1.4,0.9-2.9,1.2-4.4c0.3-1.5,0.5-3,0.5-4.5
			c0.1-1.5,0.1-2.8,0.1-4c0-2.7-0.2-5.6-0.7-8.9c-0.5-3.2-1.7-5.8-3.6-7.8c-2-2-4.3-3.2-7.1-3.6c-2.8-0.4-5.2-0.6-7.1-0.6h-37
			c-0.8,0-1.7,0-2.6,0.1c-0.9,0.1-1.9,0.6-2.8,1.5c-0.8,0.8-1.3,1.7-1.4,2.7c-0.1,1-0.2,2-0.2,3V720H1544z"/>
		<path class="st2" d="M1639.3,781.4V678h-47.4v-18.2h118V678h-47.6v103.4H1639.3z"/>
		<path class="st2" d="M1811.1,781.4l0.9-92.5c0-0.9-0.1-1.8-0.3-2.7c-0.2-0.9-0.7-1.3-1.5-1.3c-0.7,0-1.4,0.6-2.1,1.7
			c-0.7,1.2-1.5,2.4-2.4,3.8l-50.1,80.8c-0.8,1.4-1.7,2.8-2.7,4.1c-1,1.3-2.2,2.5-3.6,3.6c-1.4,1.1-3.1,2-5.2,2.7
			c-2.1,0.7-4.7,1-7.8,1c-4.4,0-7.8-0.8-10.3-2.3c-2.4-1.5-4.2-3.4-5.3-5.6c-1.1-2.2-1.8-4.5-2-6.9c-0.2-2.4-0.3-4.4-0.3-6.2V659.7
			h22.9l-0.7,90.7c0,1.4,0.1,2.7,0.2,3.8c0.1,1.2,0.8,1.7,1.9,1.7c0.7,0,1.3-0.4,1.7-1.2c0.5-0.8,1-1.7,1.6-2.6l49.1-80.3
			c3.2-5.3,6.4-8.9,9.5-10.8c3.1-1.9,6.7-2.8,10.9-2.8c4.5,0,8.1,0.9,10.6,2.6c2.6,1.7,4.4,3.8,5.6,6.1c1.2,2.3,1.9,4.7,2.1,7.2
			c0.2,2.5,0.3,4.5,0.3,6v101.1H1811.1z"/>
		<path class="st2" d="M1951.8,722c2.3,1.2,4.1,2.6,5.6,4.3c1.4,1.6,2.5,3.3,3.3,5.1c0.8,1.8,1.4,3.6,1.7,5.6s0.5,3.8,0.6,5.6
			c0.1,1.9,0.1,3.6,0.1,5.4c0,4.1-0.3,8.3-0.9,12.9c-0.6,4.5-2.6,8.7-6.1,12.7c-1.7,2-3.5,3.5-5.4,4.5c-1.9,1-3.7,1.8-5.6,2.3
			c-1.9,0.5-3.7,0.8-5.6,0.9c-1.9,0.1-3.8,0.1-5.6,0.1h-58.2c-3,0-5.9-0.1-8.7-0.3c-2.8-0.2-5.4-1.7-7.8-4.5
			c-0.6-0.7-1.4-2.1-2.5-4.1c-1.1-2-1.7-4.8-1.7-8.3v-86.9c0-2.3,0.3-4.6,1-6.8c0.6-2.2,1.6-4.1,2.9-5.7c1.9-2.2,4-3.6,6.3-4.2
			c2.4-0.6,4.5-0.9,6.5-0.9h59.8c1.6,0,3.4,0.1,5.3,0.2c1.9,0.1,3.9,0.4,5.8,1c2,0.5,3.9,1.3,5.7,2.3c1.9,1,3.6,2.3,5.2,3.9
			c1.7,1.7,3.1,3.7,4.1,5.9c1,2.2,1.7,4.5,2.3,6.8c0.5,2.3,0.9,4.6,1,7c0.2,2.3,0.3,4.5,0.3,6.4c0,3.4-0.3,6.7-0.9,10
			c-0.6,3.3-2.2,6.6-4.9,9.8c-1.7,2.1-3.5,3.6-5.3,4.5c-1.8,0.9-3.9,1.5-6.2,1.7v0.7C1947,720.1,1949.6,720.8,1951.8,722z
			 M1878.1,710.8h44.5c2.3,0,4.6-0.2,6.8-0.5c2.2-0.3,4.1-1.6,5.7-3.8c0.5-0.6,1-1.7,1.7-3.5c0.6-1.7,1-4.7,1-8.9
			c0-1.6-0.2-3.7-0.5-6.3c-0.3-2.6-1.5-4.8-3.5-6.7c-1.6-1.6-3.4-2.5-5.4-2.8c-2-0.2-3.9-0.3-5.9-0.3h-37.5c-0.9,0-1.9,0-2.8,0.1
			c-0.9,0.1-1.7,0.5-2.4,1.3c-0.7,0.8-1.1,1.7-1.3,2.8c-0.2,1-0.3,1.9-0.3,2.6V710.8z M1878.1,754.1c0,2,0.1,3.5,0.3,4.6
			c0.2,1.1,0.6,1.9,1,2.5c0.9,1,2.2,1.6,3.7,1.7c1.6,0.1,2.8,0.2,3.7,0.2h36.1c1.9,0,4.1-0.2,6.8-0.6c2.7-0.4,4.9-1.7,6.6-3.7
			c1.3-1.6,2.1-3.6,2.5-5.9c0.4-2.3,0.6-4.5,0.6-6.4c0-1.7-0.1-3.8-0.4-6.3c-0.3-2.4-1-4.5-2.2-6.1c-0.7-0.9-2-2-3.9-3.2
			c-1.9-1.2-4.7-1.8-8.4-1.8h-46.6V754.1z"/>
		<path class="st2" d="M2089.7,781.4h-22.9v-53.5h-63.3v53.5h-22.9V659.7h22.9v49.9h63.3v-49.9h22.9V781.4z"/>
		<path class="st2" d="M2140.8,672.1c2.2-5.1,4.7-8.7,7.6-10.7c2.8-2,7-3,12.4-3c5.2,0,9.3,1,12.3,3c3,2,5.5,5.6,7.7,10.7
			l45.9,109.3h-24.2l-12.5-30.8h-58.6l-12.3,30.8h-24.2L2140.8,672.1z M2137.3,734.3h46.7l-19.8-49.5c-0.3-0.9-0.8-2-1.4-3.2
			c-0.6-1.2-1.3-1.8-2.1-1.8c-0.8,0-1.5,0.6-2.1,1.8c-0.6,1.2-1,2.3-1.4,3.2L2137.3,734.3z"/>
		<path class="st2" d="M2316.5,781.4V686c0-0.9-0.1-1.9-0.4-3c-0.3-1.1-1-2.1-2-3c-0.9-0.9-1.9-1.5-2.9-1.7c-1-0.2-2.1-0.3-3.2-0.3
			h-38.2c-1.9,0-3.8,0.2-5.9,0.5c-2.1,0.3-4.1,1.5-5.9,3.5c-2,2.1-3.2,4.7-3.6,7.7c-0.4,3.1-0.6,6.1-0.6,9.1c0,4.3,0.2,7.6,0.5,10.1
			c0.3,2.4,1,4.3,1.9,5.7c0.9,1.6,2.4,3,4.3,4.3c2,1.2,4.3,1.8,7.1,1.8h24c0.6,0,1.4,0.1,2.6,0.2c1.2,0.1,2.3,0.4,3.5,0.9
			c1.2,0.5,2.2,1.2,3,2.2c0.9,1,1.3,2.4,1.3,4.3v2.8c0,1.2-0.3,2.6-0.9,4.4c-0.6,1.8-2,3.9-4.3,6.2l-40.7,39.8h-29.5l45.9-41.7V739
			h-15.8c-4.9,0-9.1-1.1-12.7-3.3c-3.6-2.2-6.4-5.1-8.5-8.7c-2.4-4.2-3.9-8.7-4.5-13.7c-0.6-5-0.9-10-0.9-15.1c0-2,0-4.1,0.1-6.3
			c0.1-2.3,0.3-4.6,0.6-7c0.3-2.4,0.9-4.7,1.7-7.1c0.8-2.4,1.9-4.7,3.3-6.9c3.1-4.9,6.9-7.9,11.3-9.2c4.4-1.3,9.2-1.9,14.4-1.9h59.6
			c2,0,4.1,0.3,6.5,0.9c2.4,0.6,4.7,1.9,6.9,4c2.3,2.2,3.7,4.4,4.2,6.7c0.5,2.3,0.7,4.8,0.7,7.6v102.5H2316.5z"/>
		<path class="st2" d="M1126.4,839.1c0.6-1.4,1.3-2.8,2.1-4.2c0.8-1.4,1.9-2.6,3.3-3.6c1.4-1,3.1-1.9,5.2-2.6s4.7-1,8-1
			c3.2,0,5.9,0.3,8,1s3.8,1.6,5.2,2.6c1.4,1,2.5,2.3,3.3,3.6c0.8,1.4,1.5,2.8,2.1,4.2l46.9,111.6h-24.3l-38.4-97.1
			c-0.2-0.8-0.5-1.6-0.9-2.3c-0.3-0.8-1-1.1-1.9-1.1c-0.9,0-1.6,0.4-2,1.2c-0.4,0.8-0.7,1.6-1,2.3l-38.4,97.1h-24.3L1126.4,839.1z"
			/>
		<path class="st2" d="M1308.4,950.7l0.9-92.5c0-0.9-0.1-1.8-0.3-2.7c-0.2-0.9-0.7-1.3-1.5-1.3c-0.7,0-1.4,0.6-2.1,1.7
			c-0.7,1.2-1.5,2.4-2.4,3.8l-50.1,80.8c-0.8,1.4-1.7,2.8-2.7,4.1c-1,1.3-2.2,2.5-3.6,3.7c-1.4,1.1-3.1,2-5.2,2.7
			c-2.1,0.7-4.7,1-7.8,1c-4.4,0-7.8-0.8-10.3-2.3c-2.4-1.5-4.2-3.4-5.3-5.6c-1.1-2.2-1.8-4.5-2-6.9c-0.2-2.4-0.3-4.4-0.3-6.2V829
			h22.9l-0.7,90.7c0,1.4,0.1,2.7,0.2,3.8c0.1,1.2,0.8,1.7,1.9,1.7c0.7,0,1.3-0.4,1.7-1.2c0.5-0.8,1-1.7,1.6-2.6l49.1-80.3
			c3.2-5.3,6.4-8.9,9.5-10.8c3.1-1.9,6.7-2.8,10.9-2.8c4.5,0,8.1,0.9,10.6,2.6c2.6,1.7,4.4,3.8,5.6,6.1c1.2,2.3,1.9,4.7,2.1,7.2
			c0.2,2.5,0.3,4.5,0.3,6v101.1H1308.4z"/>
		<path class="st2" d="M1352.3,950.7V846.6c0-2.3,0.2-4.5,0.6-6.7c0.4-2.1,1.6-4.2,3.6-6.2c1.3-1.3,2.9-2.4,5-3.3
			c2-0.9,4.4-1.4,7-1.4h81.3v18.2h-65.5c-1.3,0-2.7,0.1-4.3,0.2c-1.6,0.1-2.8,0.6-3.6,1.6c-0.6,0.7-0.9,1.6-1,2.8
			c-0.1,1.2-0.1,2.3-0.1,3.5v95.4H1352.3z"/>
		<path class="st2" d="M1488.8,841.4c2.2-5.1,4.7-8.7,7.6-10.7c2.8-2,7-3,12.4-3c5.2,0,9.3,1,12.3,3c3,2,5.5,5.6,7.7,10.7
			l45.9,109.3h-24.2l-12.5-30.8h-58.6l-12.3,30.8h-24.2L1488.8,841.4z M1485.3,903.6h46.7l-19.8-49.5c-0.3-0.9-0.8-2-1.4-3.2
			c-0.6-1.2-1.3-1.8-2.1-1.8c-0.8,0-1.5,0.6-2.1,1.8c-0.6,1.2-1,2.3-1.4,3.2L1485.3,903.6z"/>
	</g>
	<path class="st3" d="M2336.4,896h-693.9c-1.7,0-3.1-1.4-3.1-3.1V884c0-1.7,1.4-3.1,3.1-3.1h693.9c1.7,0,3.1,1.4,3.1,3.1v8.9
		C2339.5,894.6,2338.1,896,2336.4,896z"/>
</g>
</svg>
